<?xml version="1.0" encoding="UTF-8" standalone="no"?>
<svg
   xmlns:dc="http://purl.org/dc/elements/1.1/"
   xmlns:cc="http://creativecommons.org/ns#"
   xmlns:rdf="http://www.w3.org/1999/02/22-rdf-syntax-ns#"
   xmlns:svg="http://www.w3.org/2000/svg"
   xmlns="http://www.w3.org/2000/svg"
   xmlns:sodipodi="http://sodipodi.sourceforge.net/DTD/sodipodi-0.dtd"
   xmlns:inkscape="http://www.inkscape.org/namespaces/inkscape"
   enable-background="new 0 0 32 32"
   height="32px"
   id="Layer_1"
   version="1.0"
   viewBox="0 0 32 32"
   width="32px"
   xml:space="preserve"
   inkscape:version="0.91 r13725"
   sodipodi:docname="facebook_icon2.svg"><metadata
     id="metadata3394"><rdf:RDF><cc:Work
         rdf:about=""><dc:format>image/svg+xml</dc:format><dc:type
           rdf:resource="http://purl.org/dc/dcmitype/StillImage" /><dc:title></dc:title></cc:Work></rdf:RDF></metadata><defs
     id="defs3392" /><sodipodi:namedview
     pagecolor="#ffffff"
     bordercolor="#666666"
     borderopacity="1"
     objecttolerance="10"
     gridtolerance="10"
     guidetolerance="10"
     inkscape:pageopacity="0"
     inkscape:pageshadow="2"
     inkscape:window-width="1920"
     inkscape:window-height="1017"
     id="namedview3390"
     showgrid="false"
     inkscape:zoom="26.5"
     inkscape:cx="16"
     inkscape:cy="16"
     inkscape:window-x="-8"
     inkscape:window-y="-8"
     inkscape:window-maximized="1"
     inkscape:current-layer="g3373" /><g
     id="g3373"><path
       clip-path="none"
       d="M 2 0 C 0.896 0 0 0.896 0 2 L 0 30 C 0 31.104 0.896 32 2 32 L 17 32 L 17 20 L 13 20 L 13 15 L 17 15 L 17 12 C 17 7.881 19.325 5 23 5 L 27 5 L 27 10 L 25 10 C 23.002 10 22 11 22 13 L 22 15 L 27 15 L 26 20 L 22 20 L 22 32 L 30 32 C 31.104 32 32 31.104 32 30 L 32 2 C 32 0.896 31.104 0 30 0 L 2 0 z "
       id="path3375"
       style="fill:#ffffff" /></g><g
     id="g3378" /><g
     id="g3380" /><g
     id="g3382" /><g
     id="g3384" /><g
     id="g3386" /><g
     id="g3388" /></svg>