<?xml version="1.0" encoding="UTF-8" standalone="no"?>
<svg
   xmlns:dc="http://purl.org/dc/elements/1.1/"
   xmlns:cc="http://creativecommons.org/ns#"
   xmlns:rdf="http://www.w3.org/1999/02/22-rdf-syntax-ns#"
   xmlns:svg="http://www.w3.org/2000/svg"
   xmlns="http://www.w3.org/2000/svg"
   xmlns:sodipodi="http://sodipodi.sourceforge.net/DTD/sodipodi-0.dtd"
   xmlns:inkscape="http://www.inkscape.org/namespaces/inkscape"
   height="512"
   id="Layer_1"
   version="1.1"
   viewBox="0 0 512 512"
   width="512"
   xml:space="preserve"
   inkscape:version="0.91 r13725"
   sodipodi:docname="linkedin_icon.svg"><metadata
     id="metadata12"><rdf:RDF><cc:Work
         rdf:about=""><dc:format>image/svg+xml</dc:format><dc:type
           rdf:resource="http://purl.org/dc/dcmitype/StillImage" /></cc:Work></rdf:RDF></metadata><sodipodi:namedview
     pagecolor="#ffffff"
     bordercolor="#666666"
     borderopacity="1"
     objecttolerance="10"
     gridtolerance="10"
     guidetolerance="10"
     inkscape:pageopacity="0"
     inkscape:pageshadow="2"
     inkscape:window-width="1920"
     inkscape:window-height="1017"
     id="namedview10"
     showgrid="false"
     inkscape:zoom="0.921875"
     inkscape:cx="367.03633"
     inkscape:cy="182.36729"
     inkscape:window-x="-8"
     inkscape:window-y="-8"
     inkscape:window-maximized="1"
     inkscape:current-layer="g5891" /><defs
     id="defs12" /><g
     id="g5891"><path
       style="fill:#ffffff;fill-opacity:1;fill-rule:nonzero;stroke:none"
       d="M 64 0 C 28.544 0 0 28.544 0 64 L 0 448 C 0 483.456 28.544 512 64 512 L 448 512 C 483.456 512 512 483.456 512 448 L 512 64 C 512 28.544 483.456 0 448 0 L 64 0 z M 104.51367 54.28125 C 133.83688 54.28125 151.89257 73.570171 152.44727 98.853516 C 152.44727 123.60547 133.83442 143.42773 103.93164 143.42773 L 103.37695 143.42773 C 74.588243 143.42773 56 123.60547 56 98.853516 C 56 73.570171 75.171815 54.28125 104.51367 54.28125 z M 357.2793 172.60156 C 413.69448 172.60156 456 209.46191 456 288.69922 L 456 436.63086 L 370.25781 436.63086 L 370.25781 298.60938 C 370.25781 263.94578 357.83446 240.2832 326.82227 240.2832 C 303.13467 240.2832 289.01729 256.23511 282.83008 271.63477 C 280.55687 277.14608 280.00195 284.85493 280.00195 292.56641 L 280.00195 436.63086 L 194.26367 436.63086 C 194.26367 436.63086 195.40104 202.86522 194.26367 178.66797 L 280.00391 178.66797 L 280.00391 215.19141 C 291.41343 197.61955 311.78886 172.60156 357.2793 172.60156 z M 61.052734 178.66797 L 146.8125 178.66797 L 146.8125 436.63086 L 61.052734 436.63086 L 61.052734 178.66797 z "
       id="rect2987" /></g></svg>