<?xml version="1.0" encoding="UTF-8" standalone="no"?>
<svg
   xmlns:dc="http://purl.org/dc/elements/1.1/"
   xmlns:cc="http://creativecommons.org/ns#"
   xmlns:rdf="http://www.w3.org/1999/02/22-rdf-syntax-ns#"
   xmlns:svg="http://www.w3.org/2000/svg"
   xmlns="http://www.w3.org/2000/svg"
   xmlns:sodipodi="http://sodipodi.sourceforge.net/DTD/sodipodi-0.dtd"
   xmlns:inkscape="http://www.inkscape.org/namespaces/inkscape"
   enable-background="new 0 0 32 32"
   height="32px"
   id="Layer_1"
   version="1.0"
   viewBox="0 0 32 32"
   width="32px"
   xml:space="preserve"
   inkscape:version="0.91 r13725"
   sodipodi:docname="twitter_icon.svg"><metadata
     id="metadata3359"><rdf:RDF><cc:Work
         rdf:about=""><dc:format>image/svg+xml</dc:format><dc:type
           rdf:resource="http://purl.org/dc/dcmitype/StillImage" /></cc:Work></rdf:RDF></metadata><defs
     id="defs3357" /><sodipodi:namedview
     pagecolor="#ffffff"
     bordercolor="#666666"
     borderopacity="1"
     objecttolerance="10"
     gridtolerance="10"
     guidetolerance="10"
     inkscape:pageopacity="0"
     inkscape:pageshadow="2"
     inkscape:window-width="1079"
     inkscape:window-height="1008"
     id="namedview3355"
     showgrid="false"
     inkscape:zoom="18.73833"
     inkscape:cx="14.2181"
     inkscape:cy="16.375137"
     inkscape:window-x="649"
     inkscape:window-y="0"
     inkscape:window-maximized="0"
     inkscape:current-layer="g3337" /><g
     id="g3337"><path
       d="M 2 0 C 0.896 0 0 0.896 0 2 L 0 30 C 0 31.104 0.896 32 2 32 L 30 32 C 31.104 32 32 31.104 32 30 L 32 2 C 32 0.896 31.104 0 30 0 L 2 0 z M 19.837891 8 C 21.016891 8 22.082078 8.4903906 22.830078 9.2753906 C 23.765078 9.0943906 24.643547 8.7598281 25.435547 8.2988281 C 25.129547 9.2408281 24.480859 10.031297 23.630859 10.529297 C 24.462859 10.431297 25.250328 10.216531 25.986328 9.8945312 C 25.437328 10.703531 24.741406 11.413375 23.941406 11.984375 C 23.948406 12.155375 23.953125 12.332859 23.953125 12.505859 C 23.953125 17.842859 19.828109 23.996094 12.287109 23.996094 C 9.9711094 23.996094 7.814 23.328594 6 22.183594 C 6.321 22.221594 6.6485156 22.240234 6.9785156 22.240234 C 8.8995156 22.240234 10.670359 21.593719 12.068359 20.511719 C 10.274359 20.477719 8.7602344 19.311031 8.2402344 17.707031 C 8.4902344 17.755031 8.7457656 17.779297 9.0097656 17.779297 C 9.3857656 17.779297 9.7487969 17.726719 10.091797 17.636719 C 8.2157969 17.265719 6.8007812 15.632734 6.8007812 13.677734 C 6.8007813 13.659734 6.8017344 13.642 6.8027344 13.625 C 7.3547344 13.928 7.9872031 14.108859 8.6582031 14.130859 C 7.5602031 13.405859 6.8339844 12.170484 6.8339844 10.771484 C 6.8339844 10.029484 7.038625 9.3352812 7.390625 8.7382812 C 9.413625 11.180281 12.434797 12.788937 15.841797 12.960938 C 15.773797 12.663937 15.738281 12.351109 15.738281 12.037109 C 15.738281 9.8061094 17.571891 8 19.837891 8 z "
       id="path3339"
       style="fill:#ffffff" /></g><g
     id="g3343" /><g
     id="g3345" /><g
     id="g3347" /><g
     id="g3349" /><g
     id="g3351" /><g
     id="g3353" /></svg>