<?xml version="1.0" encoding="UTF-8" standalone="no"?>
<svg
   xmlns:dc="http://purl.org/dc/elements/1.1/"
   xmlns:cc="http://creativecommons.org/ns#"
   xmlns:rdf="http://www.w3.org/1999/02/22-rdf-syntax-ns#"
   xmlns:svg="http://www.w3.org/2000/svg"
   xmlns="http://www.w3.org/2000/svg"
   xmlns:sodipodi="http://sodipodi.sourceforge.net/DTD/sodipodi-0.dtd"
   xmlns:inkscape="http://www.inkscape.org/namespaces/inkscape"
   enable-background="new 0 0 515.91 728.5"
   height="512"
   id="Layer_1"
   version="1.1"
   viewBox="0 0 512.00003 512"
   width="512"
   xml:space="preserve"
   inkscape:version="0.91 r13725"
   sodipodi:docname="youtube_icon.svg"><metadata
     id="metadata8"><rdf:RDF><cc:Work
         rdf:about=""><dc:format>image/svg+xml</dc:format><dc:type
           rdf:resource="http://purl.org/dc/dcmitype/StillImage" /></cc:Work></rdf:RDF></metadata><sodipodi:namedview
     pagecolor="#ffffff"
     bordercolor="#666666"
     borderopacity="1"
     objecttolerance="10"
     gridtolerance="10"
     guidetolerance="10"
     inkscape:pageopacity="0"
     inkscape:pageshadow="2"
     inkscape:window-width="1920"
     inkscape:window-height="1017"
     id="namedview6"
     showgrid="false"
     inkscape:zoom="0.4609375"
     inkscape:cx="256"
     inkscape:cy="256"
     inkscape:window-x="-8"
     inkscape:window-y="-8"
     inkscape:window-maximized="1"
     inkscape:current-layer="Layer_1" /><defs
     id="defs7" /><path
     style="fill:#ffffff;fill-opacity:1;fill-rule:nonzero;stroke:none"
     d="M 64 0 C 28.544 0 0 28.544 0 64 L 0 448 C 0 483.456 28.544 512 64 512 L 448 512 C 483.456 512 512 483.456 512 448 L 512 64 C 512 28.544 483.456 0 448 0 L 64 0 z M 139.48047 56 L 165.86133 56 L 181.39062 109.76367 L 196.70312 56.146484 L 223.35938 56.146484 L 194.56055 128.33398 L 194.51562 212.59961 L 170.16406 212.59961 L 170.11914 128.37305 L 139.48047 56 z M 251.04883 95.035156 C 257.02661 95.035156 262.14577 96.208079 266.42578 98.505859 C 270.72355 100.81697 274.03567 103.81731 276.33789 107.51953 C 278.68011 111.23509 280.27025 115.05427 281.11914 118.96094 C 281.98581 122.92094 282.41406 128.89339 282.41406 136.95117 L 282.41406 164.73828 C 282.41406 174.92939 282.004 182.4275 281.21289 187.1875 C 280.42623 191.96083 278.73834 196.386 276.125 200.53711 C 273.54278 204.64377 270.21328 207.71578 266.17773 209.67578 C 262.09773 211.65355 257.43127 212.62305 252.16016 212.62305 C 246.27127 212.62305 241.31155 211.80911 237.22266 210.11133 C 233.12044 208.42244 229.95114 205.87637 227.69336 202.49414 C 225.41336 199.10748 223.80873 194.98272 222.83984 190.17383 C 221.86651 185.36939 221.4043 178.14283 221.4043 168.51172 L 221.4043 139.42188 L 221.4082 139.42188 C 221.4082 128.87521 222.28849 120.6409 224.03516 114.70312 C 225.79516 108.78758 228.95544 104.03198 233.5332 100.44531 C 238.09765 96.840873 243.94216 95.035156 251.04883 95.035156 z M 297.03516 99.289062 L 318.26172 99.289062 L 318.26172 184.80078 C 318.26172 189.43189 322.08906 193.22266 326.72461 193.22266 C 331.38684 193.22266 335.19922 189.43189 335.19922 184.80078 L 335.19922 99.289062 L 355.53711 99.289062 L 355.53711 209.16016 L 329.70312 209.16016 L 330.13867 200.06641 C 328.37422 203.75974 326.20952 206.52948 323.64062 208.38281 C 321.06285 210.24503 318.10199 211.14648 314.75977 211.14648 C 310.95088 211.14648 307.76427 210.26674 305.27539 208.51562 C 302.75539 206.73785 300.89869 204.38127 299.70312 201.47461 C 298.50758 198.52794 297.78215 195.4892 297.48438 192.32031 C 297.20437 189.1292 297.03516 182.83648 297.03516 173.39648 L 297.03516 99.289062 z M 251.91602 113.28516 C 246.27602 113.28516 241.64453 118.36478 241.64453 124.57812 L 241.64453 183.06641 C 241.64453 189.28863 246.27602 194.36914 251.91602 194.36914 C 257.56046 194.36914 262.16797 189.28863 262.16797 183.06641 L 262.16797 124.57812 C 262.16797 118.36478 257.56046 113.28516 251.91602 113.28516 z M 143.87109 235.11523 L 368.13281 235.11523 C 398.12391 235.11523 422.66602 258.27645 422.66602 286.57422 L 422.66602 404.54688 C 422.66602 432.84465 398.1239 456 368.13281 456 L 143.87109 456 C 113.86665 456 89.333984 432.84465 89.333984 404.54688 L 89.333984 286.57422 C 89.333984 258.27645 113.86665 235.11523 143.87109 235.11523 z M 112.52539 274.56836 L 112.52539 292.67188 L 135.6582 292.73828 L 135.6582 417.35547 L 158.83203 417.35547 L 158.83203 293.08398 L 186.63086 293.09375 L 186.63086 274.67969 L 112.52539 274.56836 z M 279.21289 274.66602 L 256.05859 274.70312 L 255.94727 416.43555 L 274.98242 416.15625 L 276.71484 407.32812 C 301.05261 429.65256 316.34611 414.35927 316.31055 387.58594 L 316.26172 332.35547 C 316.26172 311.30658 300.49691 298.69741 279.11914 315.72852 L 279.21289 274.66602 z M 362.51172 305.35156 C 355.42135 305.23969 348.22427 307.17266 342.96094 310.97266 C 338.55205 314.13711 335.18603 318.37307 333.23047 324.06641 C 331.25269 329.75974 330.27539 337.53797 330.27539 347.41797 L 330.27539 380.3457 C 330.27939 435.09236 396.77709 427.35647 388.84375 380.26758 L 371.4668 380.35938 C 371.4668 381.04827 371.42187 381.84427 371.42188 382.71094 L 371.42188 392.4082 C 371.42188 397.59487 367.13272 401.82227 361.92383 401.82227 L 358.51953 401.82227 C 353.30176 401.82227 349.01758 397.59487 349.01758 392.4082 L 349.01758 391.33398 L 349.01758 380.66602 L 349.01758 366.90234 L 388.8125 366.90234 L 388.8125 351.92383 C 388.8125 340.97717 388.53361 330.03512 387.62695 323.77734 C 385.84917 311.40512 374.32899 305.53802 362.51172 305.35156 z M 182.06641 311.5957 L 182.13867 377.35938 C 182.13867 387.43937 181.91208 394.95917 182.21875 398.37695 C 182.78319 404.40806 182.58216 411.44369 188.17773 415.45703 C 198.60439 422.97258 218.5918 414.33739 223.5918 403.59961 L 223.54688 417.30273 L 242.16016 417.32422 L 242.16016 311.5957 L 218.98633 311.5957 L 218.98633 377.95508 C 218.98633 387.55508 219.56803 392.3555 218.94141 394.04883 C 217.05696 399.1955 208.58739 404.65686 205.28516 394.60352 C 204.72516 392.84352 205.21788 387.53406 205.20898 378.41406 L 205.11523 311.5957 L 182.06641 311.5957 z M 288.94727 321.26172 C 294.53839 321.26172 299.09766 324.99927 299.09766 329.58594 L 299.09766 391.59961 C 299.09766 396.17294 294.53838 399.90625 288.94727 399.90625 C 283.37838 399.90625 278.82227 396.17294 278.82227 391.59961 L 278.82227 329.58594 C 278.82227 325.00371 283.37838 321.26172 288.94727 321.26172 z M 359.77734 325.5332 L 361.17773 325.5332 C 366.87551 325.5332 371.54297 330.16927 371.54297 335.83594 L 371.28906 348.58594 L 349.33398 348.58594 L 349.43555 335.83594 C 349.43555 330.16927 354.08845 325.5332 359.77734 325.5332 z "
     id="rect2984" /></svg>